<svg width="17" height="20" viewBox="0 0 17 20" fill="none" xmlns="http://www.w3.org/2000/svg">
<path d="M8.5 4.625V4.625C6.44303 4.625 4.65002 6.02494 4.15113 8.0205L3.42289 10.9335C3.15078 12.0219 2.48274 12.9698 1.54923 13.5922V13.5922C1.08513 13.9016 1.30417 14.625 1.86195 14.625H15.1381C15.6958 14.625 15.9149 13.9016 15.4508 13.5922V13.5922C14.5173 12.9698 13.8492 12.0219 13.5771 10.9335L12.8489 8.0205C12.35 6.02494 10.557 4.625 8.5 4.625V4.625ZM8.5 4.625V1.125" stroke="#666666" stroke-linecap="round"/>
<path d="M6.08519 17.022C6.22762 17.5536 6.54149 18.0234 6.9781 18.3584C7.41471 18.6934 7.94966 18.875 8.5 18.875C9.05033 18.875 9.58529 18.6934 10.0219 18.3584C10.4585 18.0234 10.7724 17.5536 10.9148 17.022" stroke="#666666" stroke-linecap="round"/>
</svg>
