<svg width="24" height="24" viewBox="0 0 24 24" fill="none" xmlns="http://www.w3.org/2000/svg">
<path fill-rule="evenodd" clip-rule="evenodd" d="M10.9715 3.5H11H13H13.0285C14.4088 3.5 15.4831 3.49999 16.3368 3.58683C17.2046 3.67512 17.8998 3.85728 18.5001 4.25839C18.9914 4.5867 19.4133 5.00858 19.7416 5.49993C20.1427 6.10023 20.3249 6.79537 20.4132 7.66325C20.5 8.51689 20.5 9.59116 20.5 10.9715V11V11.0285C20.5 12.4088 20.5 13.4831 20.4132 14.3368C20.3249 15.2046 20.1427 15.8998 19.7416 16.5001C19.4133 16.9914 18.9914 17.4133 18.5001 17.7416C17.9757 18.092 17.3793 18.2752 16.6582 18.3749C16.0146 18.4638 15.2459 18.4892 14.3106 18.4968L13.3416 20.4348C12.7889 21.5403 11.2111 21.5403 10.6584 20.4348L9.68936 18.4968C8.75409 18.4892 7.98539 18.4638 7.34176 18.3749C6.62069 18.2752 6.02427 18.092 5.49993 17.7416C5.00858 17.4133 4.5867 16.9914 4.25839 16.5001C3.85728 15.8998 3.67512 15.2046 3.58683 14.3368C3.49999 13.4831 3.5 12.4088 3.5 11.0285V11V10.9715C3.5 9.59116 3.49999 8.5169 3.58683 7.66325C3.67512 6.79537 3.85728 6.10023 4.25839 5.49993C4.5867 5.00858 5.00858 4.5867 5.49993 4.25839C6.10023 3.85728 6.79537 3.67512 7.66325 3.58683C8.5169 3.49999 9.59116 3.5 10.9715 3.5ZM7.76445 4.5817C6.97564 4.66194 6.4641 4.81684 6.0555 5.08986C5.67334 5.34521 5.34521 5.67334 5.08986 6.0555C4.81684 6.4641 4.66194 6.97564 4.5817 7.76445C4.5006 8.56162 4.5 9.58513 4.5 11C4.5 12.4149 4.5006 13.4384 4.5817 14.2355C4.66194 15.0244 4.81684 15.5359 5.08986 15.9445C5.34521 16.3267 5.67334 16.6548 6.0555 16.9101C6.41252 17.1487 6.84838 17.2971 7.47869 17.3843C8.11704 17.4725 8.92095 17.4939 10.0022 17.4986C10.2067 17.4995 10.3821 17.6231 10.4588 17.7995L11.5528 19.9875C11.737 20.3561 12.263 20.3561 12.4472 19.9875L13.5412 17.7995C13.6179 17.6231 13.7933 17.4995 13.9978 17.4986C15.079 17.4939 15.883 17.4725 16.5213 17.3843C17.1516 17.2971 17.5875 17.1487 17.9445 16.9101C18.3267 16.6548 18.6548 16.3267 18.9101 15.9445C19.1832 15.5359 19.3381 15.0244 19.4183 14.2355C19.4994 13.4384 19.5 12.4149 19.5 11C19.5 9.58513 19.4994 8.56162 19.4183 7.76445C19.3381 6.97564 19.1832 6.4641 18.9101 6.0555C18.6548 5.67334 18.3267 5.34521 17.9445 5.08986C17.5359 4.81684 17.0244 4.66194 16.2355 4.5817C15.4384 4.5006 14.4149 4.5 13 4.5H11C9.58513 4.5 8.56162 4.5006 7.76445 4.5817Z" fill="#666666"/>
</svg>
