<svg width="24" height="24" viewBox="0 0 24 24" fill="none" xmlns="http://www.w3.org/2000/svg">
<path fill-rule="evenodd" clip-rule="evenodd" d="M7 5C7 3.34315 8.34315 2 10 2H14C15.6569 2 17 3.34315 17 5V5.00068C18.0789 5.00539 18.6705 5.04261 19.1111 5.33706C19.3295 5.48298 19.517 5.67048 19.6629 5.88886C20 6.39331 20 7.09554 20 8.5V18C20 19.8856 20 20.8284 19.4142 21.4142C18.8284 22 17.8856 22 16 22H8C6.11438 22 5.17157 22 4.58579 21.4142C4 20.8284 4 19.8856 4 18V8.5C4 7.09554 4 6.39331 4.33706 5.88886C4.48298 5.67048 4.67048 5.48298 4.88886 5.33706C5.32954 5.04261 5.92115 5.00539 7 5.00068V5ZM11 4C10.4477 4 10 4.44772 10 5C10 5.55228 10.4477 6 11 6H13C13.5523 6 14 5.55228 14 5C14 4.44772 13.5523 4 13 4H11Z" fill="#D3D4D4"/>
</svg>
