<svg width="45" height="45" viewBox="0 0 45 45" fill="none" xmlns="http://www.w3.org/2000/svg">
<path fill-rule="evenodd" clip-rule="evenodd" d="M4.33579 9.96079C3.75 10.5466 3.75 11.4894 3.75 13.375V31.625C3.75 33.5106 3.75 34.4534 4.33579 35.0392C4.92157 35.625 5.86438 35.625 7.75 35.625H37.25C39.1356 35.625 40.0784 35.625 40.6642 35.0392C41.25 34.4534 41.25 33.5106 41.25 31.625V13.375C41.25 11.4894 41.25 10.5466 40.6642 9.96079C40.0784 9.375 39.1356 9.375 37.25 9.375H7.75C5.86438 9.375 4.92157 9.375 4.33579 9.96079ZM9.375 14C8.82272 14 8.375 14.4477 8.375 15C8.375 15.5523 8.82272 16 9.375 16H13.125C13.6773 16 14.125 15.5523 14.125 15C14.125 14.4477 13.6773 14 13.125 14H9.375ZM30.875 30C30.875 29.4477 31.3227 29 31.875 29H35.625C36.1773 29 36.625 29.4477 36.625 30C36.625 30.5523 36.1773 31 35.625 31H31.875C31.3227 31 30.875 30.5523 30.875 30ZM26.125 22.5C26.125 24.502 24.502 26.125 22.5 26.125C20.498 26.125 18.875 24.502 18.875 22.5C18.875 20.498 20.498 18.875 22.5 18.875C24.502 18.875 26.125 20.498 26.125 22.5ZM28.125 22.5C28.125 25.6066 25.6066 28.125 22.5 28.125C19.3934 28.125 16.875 25.6066 16.875 22.5C16.875 19.3934 19.3934 16.875 22.5 16.875C25.6066 16.875 28.125 19.3934 28.125 22.5Z" fill="white"/>
</svg>
