<svg width="33" height="33" viewBox="0 0 33 33" fill="none" xmlns="http://www.w3.org/2000/svg">
<path d="M0 10.5106L0.222704 10.4016L17.2543 2L32.894 10.953L33 27L0.432152 26.8235" fill="#E9F3FE"/>
<path d="M16.1468 20.1096C15.338 20.0494 14.5766 19.7816 14 19.2304L14.7614 18.4047C15.1358 18.7484 15.6575 18.9894 16.1493 19.0675V17.3894L15.6475 17.2176C14.9835 16.9431 14.2421 16.4856 14.2421 15.5997C14.2421 14.7227 14.9935 14.0421 16.1493 13.9038V13H17.0454V13.8948C17.662 13.9729 18.2586 14.1872 18.7304 14.6089L18.009 15.3587C17.7294 15.1266 17.4024 14.9704 17.0454 14.9035V16.5727L17.5846 16.7534C18.3834 17.0725 19 17.434 19 18.2954C19 19.2951 18.2112 19.8976 17.0454 20.0784V21H16.1493V20.1096H16.1468ZM16.1468 16.2268V14.9102C15.7524 15.0039 15.4628 15.2449 15.4628 15.5551C15.4628 15.8318 15.7524 16.0973 16.1468 16.2268ZM17.0429 17.7241V19.0318C17.4373 18.9381 17.7743 18.7997 17.7743 18.378C17.7743 18.0343 17.5047 17.9049 17.0429 17.7241Z" fill="white"/>
<path d="M0 30H32L0.102171 11L0 11.1773V30Z" fill="#CDE3FB"/>
<path d="M33 30H0L32.8946 11L33 11.1773V30Z" fill="#8BBFF5"/>
</svg>
