<svg width="33" height="33" viewBox="0 0 33 33" fill="none" xmlns="http://www.w3.org/2000/svg">
<path d="M27.2963 30.6873C27.2963 31.5029 26.6103 32.1706 25.7722 32.1706H6.68129C5.84328 32.1706 5.15723 31.5029 5.15723 30.6873V7.03618C5.15723 6.22055 5.84328 5.55282 6.68129 5.55282H25.7722C26.6103 5.55282 27.2963 6.22055 27.2963 7.03618V30.6873Z" fill="#E1E5FF"/>
<path d="M16.2168 3.41939C15.8257 3.41939 15.5084 3.11054 15.5084 2.72992C15.5084 2.34929 15.8257 2.04044 16.2168 2.04044C16.2213 2.04044 16.228 2.04044 16.2324 2.04044V0.974678C13.6581 0.974678 13.9687 3.35849 13.7519 4.14367C13.5352 4.92886 12.5117 4.71788 10.744 5.07893C8.97639 5.44216 9.10153 7.4323 9.10153 7.4323H16.2324V3.41939C16.228 3.41939 16.2235 3.41939 16.2168 3.41939Z" fill="#BDB5EC"/>
<path d="M16.2368 3.41939C16.6279 3.41939 16.9452 3.11054 16.9452 2.72992C16.9452 2.34929 16.6279 2.04044 16.2368 2.04044C16.2324 2.04044 16.2257 2.04044 16.2212 2.04044V0.974678C18.7956 0.974678 18.4849 3.35849 18.7017 4.14367C18.9185 4.92886 19.942 4.71788 21.7096 5.07893C23.4772 5.44216 23.3521 7.4323 23.3521 7.4323H16.2212V3.41939C16.2257 3.41939 16.2324 3.41939 16.2368 3.41939Z" fill="#8F84D0"/>
<path d="M22.7114 12.6435H9.74353C9.49772 12.6435 9.29883 12.4282 9.29883 12.1607C9.29883 11.8953 9.49772 11.6778 9.74353 11.6778H22.7114C22.9573 11.6778 23.1561 11.8931 23.1561 12.1607C23.1584 12.4282 22.9595 12.6435 22.7114 12.6435Z" fill="#BDB5EC"/>
<path d="M22.7114 17.1699H9.74353C9.49772 17.1699 9.29883 16.9545 9.29883 16.687C9.29883 16.4195 9.49772 16.2042 9.74353 16.2042H22.7114C22.9573 16.2042 23.1561 16.4195 23.1561 16.687C23.1561 16.9545 22.9595 17.1699 22.7114 17.1699Z" fill="#BDB5EC"/>
<path d="M18.1706 21.6985H9.9447C9.69889 21.6985 9.5 21.4832 9.5 21.2157C9.5 20.9481 9.69889 20.7328 9.9447 20.7328H18.1728C18.4187 20.7328 18.6175 20.9481 18.6175 21.2157C18.6175 21.4832 18.4164 21.6985 18.1706 21.6985Z" fill="#BDB5EC"/>
</svg>
