<svg width="33" height="33" viewBox="0 0 33 33" fill="none" xmlns="http://www.w3.org/2000/svg">
<path d="M8.97995 14.6324H4.93262V32.2023H8.97995V14.6324Z" fill="#8F84D0"/>
<path d="M18.5273 17.1833H14.48V32.202H18.5273V17.1833Z" fill="#8F84D0"/>
<path d="M28.0781 7.18341H24.0308V32.2021H28.0781V7.18341Z" fill="#8F84D0"/>
<path d="M6.90392 9.78749C7.99265 9.78749 8.87523 8.93594 8.87523 7.88551C8.87523 6.83508 7.99265 5.98354 6.90392 5.98354C5.8152 5.98354 4.93262 6.83508 4.93262 7.88551C4.93262 8.93594 5.8152 9.78749 6.90392 9.78749Z" fill="#8BBFF5"/>
<path d="M16.5929 13.3062C17.6816 13.3062 18.5642 12.4547 18.5642 11.4042C18.5642 10.3538 17.6816 9.50226 16.5929 9.50226C15.5042 9.50226 14.6216 10.3538 14.6216 11.4042C14.6216 12.4547 15.5042 13.3062 16.5929 13.3062Z" fill="#8BBFF5"/>
<path d="M25.9913 3.80394C27.08 3.80394 27.9626 2.9524 27.9626 1.90197C27.9626 0.851542 27.08 0 25.9913 0C24.9026 0 24.02 0.851542 24.02 1.90197C24.02 2.9524 24.9026 3.80394 25.9913 3.80394Z" fill="#8BBFF5"/>
<path opacity="0.21" d="M16.7209 12.0005L6.62354 8.01976L7.02146 7.08519L16.4644 10.8083L25.9361 1.44495L26.6848 2.15219L16.7209 12.0005Z" fill="#8BBFF5"/>
</svg>
