<svg width="25" height="24" viewBox="0 0 25 24" fill="none" xmlns="http://www.w3.org/2000/svg">
<path fill-rule="evenodd" clip-rule="evenodd" d="M20.1543 11C20.1543 8.19108 20.1543 6.78661 19.4802 5.77772C19.1883 5.34096 18.8133 4.96596 18.3766 4.67412C17.3677 4 15.9632 4 13.1543 4H11.1543C8.34537 4 6.94091 4 5.93202 4.67412C5.49526 4.96596 5.12025 5.34096 4.82842 5.77772C4.1543 6.78661 4.1543 8.19108 4.1543 11C4.1543 13.8089 4.1543 15.2134 4.82842 16.2223C5.12025 16.659 5.49526 17.034 5.93202 17.3259C6.81337 17.9148 7.99659 17.9892 10.1543 17.9986V18L11.2599 20.2111C11.6284 20.9482 12.6802 20.9482 13.0487 20.2111L14.1543 18V17.9986C16.312 17.9892 17.4952 17.9148 18.3766 17.3259C18.8133 17.034 19.1883 16.659 19.4802 16.2223C20.1543 15.2134 20.1543 13.8089 20.1543 11ZM8.1543 12C8.70658 12 9.1543 11.5523 9.1543 11C9.1543 10.4477 8.70658 10 8.1543 10C7.60201 10 7.1543 10.4477 7.1543 11C7.1543 11.5523 7.60201 12 8.1543 12ZM13.1543 11C13.1543 11.5523 12.7066 12 12.1543 12C11.602 12 11.1543 11.5523 11.1543 11C11.1543 10.4477 11.602 10 12.1543 10C12.7066 10 13.1543 10.4477 13.1543 11ZM17.1543 11C17.1543 11.5523 16.7066 12 16.1543 12C15.602 12 15.1543 11.5523 15.1543 11C15.1543 10.4477 15.602 10 16.1543 10C16.7066 10 17.1543 10.4477 17.1543 11Z" fill="#DDDDDD"/>
</svg>
