<svg width="14" height="14" viewBox="0 0 14 14" fill="none" xmlns="http://www.w3.org/2000/svg">
<path d="M6.99935 7.58329C7.32152 7.58329 7.58268 7.32213 7.58268 6.99996C7.58268 6.67779 7.32152 6.41663 6.99935 6.41663C6.67718 6.41663 6.41602 6.67779 6.41602 6.99996C6.41602 7.32213 6.67718 7.58329 6.99935 7.58329Z" fill="#999999" stroke="#999999" stroke-linecap="round" stroke-linejoin="round"/>
<path d="M6.99935 3.50004C7.32152 3.50004 7.58268 3.23887 7.58268 2.91671C7.58268 2.59454 7.32152 2.33337 6.99935 2.33337C6.67718 2.33337 6.41602 2.59454 6.41602 2.91671C6.41602 3.23887 6.67718 3.50004 6.99935 3.50004Z" fill="#999999" stroke="#999999" stroke-linecap="round" stroke-linejoin="round"/>
<path d="M6.99935 11.6667C7.32152 11.6667 7.58268 11.4055 7.58268 11.0833C7.58268 10.7612 7.32152 10.5 6.99935 10.5C6.67718 10.5 6.41602 10.7612 6.41602 11.0833C6.41602 11.4055 6.67718 11.6667 6.99935 11.6667Z" fill="#999999" stroke="#999999" stroke-linecap="round" stroke-linejoin="round"/>
</svg>
