<svg width="16" height="16" viewBox="0 0 16 16" fill="none" xmlns="http://www.w3.org/2000/svg">
<path fill-rule="evenodd" clip-rule="evenodd" d="M1.86891 3.33334C1.33301 4.26155 1.33301 5.5077 1.33301 8.00001C1.33301 10.4923 1.33301 11.7385 1.86891 12.6667C2.21998 13.2748 2.72493 13.7797 3.33301 14.1308C4.26121 14.6667 5.50737 14.6667 7.99967 14.6667C10.492 14.6667 11.7381 14.6667 12.6663 14.1308C13.2744 13.7797 13.7794 13.2748 14.1304 12.6667C14.6663 11.7385 14.6663 10.4923 14.6663 8.00001C14.6663 5.87252 14.6663 4.65307 14.333 3.7643V11.3333C13.6927 11.3333 13.0787 11.079 12.6259 10.6262L12.1248 10.1251L12.1247 10.125C12.0837 10.084 12.0632 10.0635 12.0454 10.0466C11.273 9.31128 10.0596 9.31128 9.28729 10.0466C9.26953 10.0635 9.24904 10.084 9.20813 10.1249L9.20806 10.125L9.20789 10.1251L9.13247 10.2006L9.13244 10.2006C9.05407 10.2789 9.01489 10.3181 8.98338 10.3448C8.49627 10.7575 7.75247 10.6142 7.45345 10.0502C7.43411 10.0137 7.41228 9.96275 7.36861 9.86086L7.33301 9.77779L7.333 9.77778C7.18247 9.42654 7.10721 9.25092 7.03307 9.12922C6.41901 8.12122 5.07013 7.86145 4.12562 8.5693C4.0116 8.65476 3.87649 8.78986 3.60628 9.06007L3.60627 9.06008L3.60627 9.06008L2.33301 10.3333V2.68759C2.15794 2.88609 2.00232 3.10227 1.86891 3.33334Z" fill="#D1D1D1"/>
<path d="M7.99967 14.1667C6.74432 14.1667 5.83623 14.1662 5.12493 14.1017C4.42051 14.0379 3.95833 13.9145 3.58301 13.6978C3.05094 13.3906 2.60911 12.9487 2.30192 12.4167C2.08523 12.0414 1.9618 11.5792 1.89795 10.8748C1.83349 10.1635 1.83301 9.25537 1.83301 8.00001C1.83301 6.74465 1.83349 5.83657 1.89795 5.12527C1.9618 4.42085 2.08523 3.95866 2.30192 3.58334C2.60911 3.05128 3.05094 2.60944 3.58301 2.30226C3.95833 2.08556 4.42051 1.96213 5.12493 1.89829C5.83623 1.83382 6.74432 1.83334 7.99967 1.83334C9.25503 1.83334 10.1631 1.83382 10.8744 1.89829C11.5788 1.96213 12.041 2.08556 12.4163 2.30226C12.9484 2.60944 13.3902 3.05128 13.6974 3.58334C13.9141 3.95866 14.0376 4.42085 14.1014 5.12527C14.1659 5.83657 14.1663 6.74465 14.1663 8.00001C14.1663 9.25537 14.1659 10.1635 14.1014 10.8748C14.0376 11.5792 13.9141 12.0414 13.6974 12.4167C13.3902 12.9487 12.9484 13.3906 12.4163 13.6978C12.041 13.9145 11.5788 14.0379 10.8744 14.1017C10.1631 14.1662 9.25503 14.1667 7.99967 14.1667Z" stroke="#D1D1D1"/>
<ellipse cx="10.0003" cy="5.99999" rx="1.33333" ry="1.33333" fill="#D1D1D1"/>
</svg>
