<svg width="13" height="13" viewBox="0 0 13 13" fill="none" xmlns="http://www.w3.org/2000/svg">
<path d="M5.95801 3.79159H7.04134V4.87492H5.95801V3.79159ZM5.95801 5.95825H7.04134V9.20825H5.95801V5.95825ZM6.49967 1.08325C3.50967 1.08325 1.08301 3.50992 1.08301 6.49992C1.08301 9.48992 3.50967 11.9166 6.49967 11.9166C9.48967 11.9166 11.9163 9.48992 11.9163 6.49992C11.9163 3.50992 9.48967 1.08325 6.49967 1.08325ZM6.49967 10.8333C4.11092 10.8333 2.16634 8.88867 2.16634 6.49992C2.16634 4.11117 4.11092 2.16659 6.49967 2.16659C8.88842 2.16659 10.833 4.11117 10.833 6.49992C10.833 8.88867 8.88842 10.8333 6.49967 10.8333Z" fill="#666666"/>
</svg>
