<svg width="16" height="20" viewBox="0 0 16 20" fill="none" xmlns="http://www.w3.org/2000/svg">
<rect x="0.5" y="3.5" width="15" height="16" rx="1.5" stroke="#666666"/>
<path fill-rule="evenodd" clip-rule="evenodd" d="M12.3796 8.67461C12.5593 8.88428 12.5351 9.19993 12.3254 9.37964L8.30953 12.8218C7.74779 13.3033 6.91889 13.3033 6.35716 12.8218L4.67461 11.3796C4.46495 11.1999 4.44067 10.8843 4.62038 10.6746C4.80009 10.4649 5.11574 10.4407 5.3254 10.6204L7.00795 12.0626C7.19519 12.2231 7.47149 12.2231 7.65874 12.0626L11.6746 8.62038C11.8843 8.44067 12.1999 8.46495 12.3796 8.67461Z" fill="#666666"/>
<path d="M4 3C4 1.5 5.43709 1 6.0002 1C6.56331 1 9.5 1 10.0002 1C10.5005 1 12 1.5 12 3" stroke="#666666" stroke-linecap="round"/>
</svg>
