<svg width="24" height="24" viewBox="0 0 24 24" fill="none" xmlns="http://www.w3.org/2000/svg">
<rect x="4.5" y="5.5" width="15" height="16" rx="1.5" stroke="#666666"/>
<path fill-rule="evenodd" clip-rule="evenodd" d="M16.3796 10.6746C16.5593 10.8843 16.5351 11.1999 16.3254 11.3796L12.3095 14.8218C11.7478 15.3033 10.9189 15.3033 10.3572 14.8218L8.67461 13.3796C8.46495 13.1999 8.44067 12.8843 8.62038 12.6746C8.80009 12.4649 9.11574 12.4407 9.3254 12.6204L11.0079 14.0626C11.1952 14.2231 11.4715 14.2231 11.6587 14.0626L15.6746 10.6204C15.8843 10.4407 16.1999 10.465 16.3796 10.6746Z" fill="#666666"/>
<path d="M8 5C8 3.5 9.43709 3 10.0002 3C10.5633 3 13.5 3 14.0002 3C14.5005 3 16 3.5 16 5" stroke="#666666" stroke-linecap="round"/>
</svg>
