<svg width="16" height="16" viewBox="0 0 16 16" fill="none" xmlns="http://www.w3.org/2000/svg">
<path fill-rule="evenodd" clip-rule="evenodd" d="M11.714 6.95244L12.6664 6C13.4028 5.26362 13.4028 4.06972 12.6664 3.33334C11.9301 2.59696 10.7362 2.59696 9.99978 3.33334L9.03144 4.30167C9.66099 5.41182 10.5884 6.33196 11.714 6.95244ZM7.57659 5.75652L3.52282 9.81029L3.52281 9.8103C3.09775 10.2354 2.88523 10.4479 2.74549 10.709C2.60576 10.9701 2.54681 11.2648 2.42892 11.8543L2.14686 13.2646C2.08034 13.5972 2.04708 13.7635 2.14168 13.8581C2.23629 13.9527 2.4026 13.9194 2.73521 13.8529L4.14552 13.5709C4.73497 13.453 5.0297 13.394 5.2908 13.2543C5.55189 13.1145 5.76442 12.902 6.18948 12.477L10.2553 8.41109C9.18119 7.72544 8.26848 6.81883 7.57659 5.75652Z" fill="#D6D4E2"/>
</svg>
