<svg width="14" height="12" viewBox="0 0 14 12" fill="none" xmlns="http://www.w3.org/2000/svg">
<path d="M8.35355 8.14645C8.15829 7.95118 7.84171 7.95118 7.64645 8.14645C7.45118 8.34171 7.45118 8.65829 7.64645 8.85355L8.35355 8.14645ZM10.5 11L10.1464 11.3536L10.5 11.7071L10.8536 11.3536L10.5 11ZM13.3536 8.85355C13.5488 8.65829 13.5488 8.34171 13.3536 8.14645C13.1583 7.95118 12.8417 7.95118 12.6464 8.14645L13.3536 8.85355ZM11 1C11 0.723858 10.7761 0.5 10.5 0.5C10.2239 0.5 10 0.723858 10 1L11 1ZM7.64645 8.85355L10.1464 11.3536L10.8536 10.6464L8.35355 8.14645L7.64645 8.85355ZM10.8536 11.3536L13.3536 8.85355L12.6464 8.14645L10.1464 10.6464L10.8536 11.3536ZM11 11L11 1L10 1L10 11L11 11Z" fill="#666666"/>
<path d="M5.64645 3.85355C5.84171 4.04882 6.15829 4.04882 6.35355 3.85355C6.54882 3.65829 6.54882 3.34171 6.35355 3.14645L5.64645 3.85355ZM3.5 1L3.85355 0.646447L3.5 0.292893L3.14645 0.646446L3.5 1ZM0.646447 3.14645C0.451184 3.34171 0.451184 3.65829 0.646447 3.85355C0.841709 4.04882 1.15829 4.04882 1.35355 3.85355L0.646447 3.14645ZM3 11C3 11.2761 3.22386 11.5 3.5 11.5C3.77614 11.5 4 11.2761 4 11L3 11ZM6.35355 3.14645L3.85355 0.646447L3.14645 1.35355L5.64645 3.85355L6.35355 3.14645ZM3.14645 0.646446L0.646447 3.14645L1.35355 3.85355L3.85355 1.35355L3.14645 0.646446ZM3 1L3 11L4 11L4 1L3 1Z" fill="#666666"/>
</svg>
