<svg width="28" height="28" viewBox="0 0 28 28" fill="none" xmlns="http://www.w3.org/2000/svg">
<path d="M13.1032 4.14997C13.47 3.40681 14.5298 3.40681 14.8966 4.14997L17.3725 9.16577C17.518 9.46061 17.7992 9.66507 18.1246 9.71263L23.6628 10.5221C24.4827 10.642 24.8095 11.6498 24.2159 12.228L20.21 16.1297C19.9742 16.3594 19.8665 16.6906 19.9222 17.0151L20.8673 22.526C21.0075 23.3429 20.1499 23.9659 19.4163 23.5801L14.4654 20.9764C14.174 20.8232 13.8259 20.8232 13.5345 20.9765L8.58355 23.5801C7.84992 23.9659 6.99237 23.3429 7.13249 22.526L8.07767 17.0151C8.13333 16.6906 8.02567 16.3594 7.7898 16.1297L3.78393 12.228C3.19034 11.6498 3.51712 10.642 4.33704 10.5221L9.87529 9.71263C10.2006 9.66507 10.4818 9.46061 10.6274 9.16577L13.1032 4.14997Z" fill="#FFC36A"/>
</svg>
